<?xml version="1.0" encoding="UTF-8"?>
<svg id="Layer_1" data-name="Layer 1" xmlns="http://www.w3.org/2000/svg" xmlns:xlink="http://www.w3.org/1999/xlink" viewBox="0 0 3000 621.24">
  <defs>
    <style>
      .cls-1 {
        fill: none;
      }

      .cls-2 {
        fill: url(#linear-gradient);
      }

      .cls-3 {
        clip-path: url(#clippath);
      }
    </style>
    <clipPath id="clippath">
      <path class="cls-1" d="M22.55,212.52v201.08c0,116.78,103.5,184.93,220.28,184.93s220.3-68.15,220.3-184.93v-201.08c0-116.78-103.5-184.95-220.3-184.95S22.55,95.74,22.55,212.52"/>
    </clipPath>
    <linearGradient id="linear-gradient" x1="4503.89" y1="158.84" x2="4523.97" y2="158.84" gradientTransform="translate(-4272.34 -128001.82) rotate(90) scale(28.43 -28.43)" gradientUnits="userSpaceOnUse">
      <stop offset="0" stop-color="#2a52a3"/>
      <stop offset=".45" stop-color="#468cca"/>
      <stop offset=".56" stop-color="#969e99"/>
      <stop offset=".63" stop-color="#af9472"/>
      <stop offset=".69" stop-color="#c78b49"/>
      <stop offset=".71" stop-color="#cd8442"/>
      <stop offset=".76" stop-color="#df7132"/>
      <stop offset=".78" stop-color="#e8642b"/>
      <stop offset=".81" stop-color="#f05a26"/>
      <stop offset=".83" stop-color="#e75726"/>
      <stop offset=".85" stop-color="#cf4f26"/>
      <stop offset=".87" stop-color="#ba4827"/>
      <stop offset=".95" stop-color="#4b211c"/>
      <stop offset=".96" stop-color="#401e1b"/>
      <stop offset="1" stop-color="#0c162b"/>
      <stop offset="1" stop-color="#0c162b"/>
    </linearGradient>
  </defs>
  <g>
    <path d="M1140.58,178.86v3.21c-22.5,3.21-32.16,16.07-45.49,52.38l-98.76,270.55h-1.81l-78.11-206.72-76.26,206.72h-1.83l-103.82-274.69c-11.49-30.79-19.74-45.49-41.82-48.24v-3.21h129.55v3.21c-17.45,1.83-26.17,8.74-26.17,23.88,0,7.81,1.83,17.45,6.87,30.33l61.58,169.96,45.01-125.41-20.23-53.75c-10.1-27.1-16.07-36.27-33.98-45.01v-3.21h127.26v3.21c-19.78,1.39-31.25,10.1-31.25,26.19,0,5.97,1.39,12.85,4.6,21.13l64.78,176.39,60.64-169.5c4.14-10.56,5.5-19.3,5.5-26.65,0-17.45-10.56-26.17-30.77-27.56v-3.21h84.52Z"/>
    <path d="M1105.2,384.2c0-71.2,44.53-123.1,114.37-123.1s114.39,51.9,114.39,123.1-44.55,123.1-114.39,123.1-114.37-51.9-114.37-123.1M1275.61,384.2c0-73.49-16.53-111.17-56.04-111.17s-56.52,37.68-56.52,111.17,16.57,111.17,56.52,111.17,56.04-37.66,56.04-111.17"/>
    <path d="M1501.61,261.09v54.21h-2.29c-4.14-2.31-11.49-3.68-21.13-3.68-30.33,0-50.07,17.92-50.07,79.94v78.09c0,19.28,9.18,25.27,39.03,27.56v3.21h-123.55v-3.21c21.13-3.21,30.31-9.2,30.31-27.56v-147.47c0-27.12-6.89-33.98-30.31-33.52v-3.23l82.23-22.96v95.55h1.83c4.12-67.07,30.31-96.93,70.28-96.93h3.68Z"/>
    <path d="M1621.94,497.21v3.21h-114.37v-3.21c21.11-3.21,30.31-9.2,30.31-27.56v-247.61c0-23.88-6.89-29.87-30.31-29.87v-3.21l84.52-23.88v304.58c0,18.36,8.72,24.34,29.85,27.56"/>
    <path d="M1875.98,497.21v2.75h-84.08v-38.58c-8.74,23.42-31.69,45.94-67.07,45.94-50.54,0-87.75-44.55-87.75-114.85,0-81.77,50.56-131.38,111.66-131.38,17.9,0,31.21,4.6,43.16,11.49v-53.29c0-20.67-9.64-28.48-41.8-23.9v-3.21l96.01-27.1v299.05c0,23.42,9.64,29.87,29.87,33.08M1791.91,453.57v-155.72c-5.06-13.78-17.92-26.19-37.66-26.19-35.83,0-58.35,39.51-58.35,105.67s25.27,100.13,58.79,100.13c17.92,0,30.79-8.26,37.22-23.88"/>
    <path d="M2148.99,167.84v121.28h-3.21c-8.26-70.28-33.52-98.3-80.86-98.3h-16.05v260.45c0,32.62,10.54,42.72,48.22,45.94v3.23h-156.65v-3.23c38.12-3.21,48.25-13.32,48.25-45.94V190.82h-16.09c-47.32,0-72.59,28.02-80.86,98.3h-2.75v-121.28h2.29c7.35,8.28,19.76,11.03,36.76,11.03h181.45c17.01,0,29.41-2.75,37.22-11.03h2.29Z"/>
    <path d="M2316.19,261.09v54.21h-2.29c-4.14-2.31-11.51-3.68-21.15-3.68-30.31,0-50.05,17.92-50.05,79.94v78.09c0,19.28,9.18,25.27,39.03,27.56v3.21h-123.57v-3.21c21.15-3.21,30.33-9.2,30.33-27.56v-147.47c0-27.12-6.89-33.98-30.33-33.52v-3.23l82.25-22.96v95.55h1.81c4.14-67.07,30.33-96.93,70.3-96.93h3.68Z"/>
    <path d="M2438.82,497.22v3.21h-114.39v-3.21c21.13-3.23,30.31-9.2,30.31-27.58v-148.83c0-26.17-6.89-31.23-30.31-31.23v-2.77l84.52-22.96v205.8c0,18.38,8.74,24.34,29.87,27.58M2346.49,206.42c0-18.82,13.78-32.62,32.62-32.62s32.6,14.24,32.6,32.62-14.22,32.16-32.6,32.16-32.62-14.24-32.62-32.16"/>
    <path d="M2445.71,589.08c21.11-3.21,30.31-9.18,30.31-27.56v-242.09c0-25.73-6.89-31.23-30.31-30.77v-3.21l84.52-22.98v41.34c11.49-25.73,36.27-42.72,68.45-42.72,48.69,0,86.37,43.18,86.37,112.1,0,79.48-48.25,134.13-108.42,134.13-17.92,0-34.47-5.97-46.4-15.14v69.36c0,19.3,9.18,25.27,39.05,27.56v3.21h-123.57v-3.21ZM2626.23,389.71c0-62.93-23.44-101.97-58.33-101.97-18.38,0-30.79,8.26-37.68,21.59v167.21c5.06,8.25,17.45,20.67,38.58,20.67,32.16,0,57.42-38.58,57.42-107.5"/>
    <path d="M2705.69,483.89l11.93-67.99,3.68.46c6.45,45.94,38.14,76.71,76.73,76.71,29.4,0,43.65-16.53,43.65-36.76,0-17.9-11.03-28.48-33.08-36.74l-54.21-22.98c-33.08-13.78-43.65-37.66-43.65-62,0-38.14,28.94-73.51,89.12-73.51,24.81,0,52.82,6.45,71.67,17.92l-12.88,60.64h-3.66c-9.66-49.15-37.22-65.68-67.99-65.68s-41.36,14.7-41.36,32.6c0,14.7,8.27,27.58,29.87,36.31l53.29,22.03c30.77,12.87,46.38,31.69,46.38,62.02,0,45.01-33.06,80.38-89.56,80.38-28.02,0-59.27-9.18-79.92-23.42"/>
  </g>
  <g class="cls-3">
    <rect class="cls-2" x="22.55" y="27.57" width="440.57" height="570.95"/>
  </g>
  <path d="M242.83,621.24C122.16,621.24,0,550.46,0,415.15v-209.05C0,70.8,122.16,0,242.83,0s242.85,70.8,242.85,206.1v209.05c0,135.32-122.18,206.1-242.85,206.1M242.83,27.58c-106.98,0-215.28,61.32-215.28,178.52v209.05c0,117.22,108.3,178.54,215.28,178.54s215.28-61.32,215.28-178.54v-209.05c0-117.2-108.3-178.52-215.28-178.52"/>
  <path d="M3000,214.06c0,27.3-19.07,48.98-47.98,48.98s-48.17-21.67-48.17-48.98,19.26-48.98,48.17-48.98,47.98,21.67,47.98,48.98ZM2991.96,214.06c0-23.28-15.65-41.76-39.94-41.76s-39.96,18.48-39.96,41.76,15.46,41.76,39.96,41.76,39.94-18.48,39.94-41.76ZM2972.7,230.93c1.61,3.61,3.41,5.61,5.61,6.02v3.22h-12.04c-1.2-1.82-2.2-4.22-3.81-7.85l-3.22-7.83c-2.8-6.41-4.81-9.83-10.24-9.83h-3.2v13.44c0,5.63,1,8.24,6.02,8.65l.78.2v3.22h-23.07v-3.22l1-.2c4.41-.22,5.61-2.41,5.61-8.65v-30.3c0-5.61-.8-8.24-5.61-8.63h-1v-3.22h24.68c9.85,0,17.87,3.22,17.87,13.04,0,8.43-6.63,12.46-15.04,13.06l-3.41.2v.61l3,.2c5.22.2,8.83,1.8,12.46,9.83l3.61,8.04ZM2945.8,210.25h4.81c7.83,0,11.04-4.02,11.04-11.04,0-6.02-3.61-9.04-10.24-9.04h-5.61v20.09Z"/>
</svg>